<?xml version="1.0" encoding="utf-8"?>
<!-- Generator: Adobe Illustrator 20.1.0, SVG Export Plug-In . SVG Version: 6.00 Build 0)  -->
<svg version="1.1" id="Layer_1" xmlns="http://www.w3.org/2000/svg" xmlns:xlink="http://www.w3.org/1999/xlink" x="0px" y="0px"
	 viewBox="0 0 30 30" style="enable-background:new 0 0 30 30;" xml:space="preserve">
<style type="text/css">
	.st0{fill:#BE1E2D;}
	.st1{fill:#00AEEF;}
	.st2{fill:#B5B1A1;}
	.st3{fill:#404441;}
	.st4{fill:#3E3E3E;}
	.st5{fill:#949292;}
	.st6{fill:#F04B25;}
	.st7{fill:#EAF2F2;}
	.st8{fill:#F6DCB4;}
	.st9{fill:#ED3626;}
	.st10{fill:#AEAEAE;}
</style>
<g>
	<path class="st0" d="M15.5,0.1c-6,0-10.8,4.8-10.8,10.8c0,6.4,10.8,18.7,10.8,18.7s10.8-11.8,10.8-18.7C26.3,4.9,21.5,0.1,15.5,0.1
		z M15.5,18.5c-4.3,0-7.7-3.5-7.7-7.7c0-4.3,3.5-7.7,7.7-7.7c4.3,0,7.7,3.5,7.7,7.7C23.3,15,19.8,18.5,15.5,18.5z"/>
</g>
<circle class="st1" cx="15.5" cy="10.8" r="7.7"/>
<g>
	<ellipse class="st2" cx="15.7" cy="12.9" rx="6.7" ry="0.4"/>
	<g>
		<path class="st3" d="M9.4,11H8.1l0.4,0.5h0.8C9.4,11.5,9.2,11.3,9.4,11z"/>
		<g>
			<g>
				<path class="st4" d="M9.1,12h13.3c0.6,0,0.6-1.6,0-1.9c-0.6-0.4-2.3-1-2.7-1H9.9C9.2,9.1,8.4,12,9.1,12z"/>
				<path class="st4" d="M20,9.1c0,0-2.8-2-3.4-2c-0.6,0-4.5,0-4.9,0c-0.5,0-0.9,0.1-1.9,2H20z"/>
				<path class="st5" d="M19.1,9.1c0,0-2.1-1.6-2.5-1.6c-0.4,0-4.2,0-4.6,0c-0.4,0-0.8,0.1-1.6,1.6L19.1,9.1z"/>
				<g>
					<rect x="13.6" y="7.3" class="st4" width="0.4" height="1.9"/>
					<g>
						<rect x="15.4" y="6.9" class="st4" width="0.6" height="0.3"/>
						<ellipse class="st6" cx="15.7" cy="6.8" rx="0.5" ry="0.2"/>
					</g>
					<g>
						<path class="st7" d="M13.2,11.5c0,0,0.1-2.4,0.4-2.4h2.8c0,0,0.3-0.1,0.4,2.4H13.2z"/>
						<path class="st4" d="M14.4,9.6c0,0,0.3,0.2,0.5,0c0,0,0.2,0.2,0.5,0c0,0,0.4,1-0.5,1.4C14.9,11,14,10.7,14.4,9.6z"/>
					</g>
					<g>
						<path class="st8" d="M22.4,10.1C22.3,10,22,9.8,21.8,9.7c0,0-0.1,0.7,0.9,0.8C22.7,10.3,22.6,10.1,22.4,10.1z"/>
						<path class="st9" d="M9.1,10.2c1.1-0.3,0.6-0.6,0.3-0.7C9.3,9.7,9.2,9.9,9.1,10.2z"/>
					</g>
				</g>
			</g>
			<g>
				<g>
					<circle class="st3" cx="19.1" cy="11.7" r="1.3"/>
					<circle class="st10" cx="19.1" cy="11.7" r="0.7"/>
				</g>
				<g>
					<circle class="st3" cx="11.5" cy="11.7" r="1.3"/>
					<circle class="st10" cx="11.5" cy="11.7" r="0.7"/>
				</g>
			</g>
		</g>
	</g>
</g>
</svg>
